<?xml version="1.0" encoding="utf-8"?>
<!-- Generator: Adobe Illustrator 24.0.1, SVG Export Plug-In . SVG Version: 6.00 Build 0)  -->
<svg version="1.1" id="Layer_1" xmlns="http://www.w3.org/2000/svg" xmlns:xlink="http://www.w3.org/1999/xlink" x="0px" y="0px"
	 viewBox="0 0 200 200" style="enable-background:new 0 0 200 200;" xml:space="preserve">
<style type="text/css">
	.st0{fill:#FFFFA0;}
	.st1{fill:#000050;}
</style>
<circle class="st0" cx="124.2" cy="95.4" r="59.9"/>
<g id="Transportation__x2F__Sea-Transportation__x2F__sea-transport-boat">
	<g id="Group_215">
		<g id="sea-transport-boat">
			<path class="st1" d="M135.8,115.3c-2.5,0-4.5-2-4.5-4.5V79.3c0-7.4-6-13.4-13.4-13.4H82.1c-7.4,0-13.4,6-13.4,13.4v31.5
				c0,2.5-2,4.5-4.5,4.5s-4.5-2-4.5-4.5V79.3c0-12.3,10-22.4,22.4-22.4h35.8c12.3,0,22.4,10,22.4,22.4v31.5
				C140.3,113.3,138.2,115.3,135.8,115.3z"/>
			<path class="st1" d="M162.6,126c-0.6,0-1.1-0.1-1.7-0.3L101.7,102c-1.1-0.4-2.3-0.4-3.3,0l-59.3,23.7c-2.3,0.9-4.9-0.2-5.8-2.5
				c-0.9-2.3,0.2-4.9,2.5-5.8L95,93.6c3.2-1.3,6.8-1.3,10,0l59.3,23.7c2.3,0.9,3.4,3.5,2.5,5.8C166.1,124.9,164.4,126,162.6,126z"/>
			<path class="st1" d="M58,149.9c-1.9,0-3.6-1.2-4.2-3.1l-9.5-28.4c-0.8-2.3,0.5-4.9,2.8-5.7c2.4-0.8,4.9,0.5,5.7,2.8l9.5,28.4
				c0.8,2.3-0.5,4.9-2.8,5.7C58.9,149.9,58.4,149.9,58,149.9z"/>
			<path class="st1" d="M100,146.4c-2.5,0-4.5-2-4.5-4.5V97.2c0-2.5,2-4.5,4.5-4.5s4.5,2,4.5,4.5v44.7
				C104.5,144.4,102.5,146.4,100,146.4z"/>
			<path class="st1" d="M141.6,151.2c-0.5,0-0.9-0.1-1.4-0.2c-2.3-0.8-3.6-3.3-2.8-5.7l9.9-29.7c0.8-2.3,3.3-3.6,5.7-2.8
				c2.3,0.8,3.6,3.3,2.8,5.7l-9.9,29.7C145.2,150,143.5,151.2,141.6,151.2z"/>
			<path class="st1" d="M145.6,139.3c-0.6,0-1.1-0.1-1.7-0.3L100,121.4L56.1,139c-2.3,0.9-4.9-0.2-5.8-2.5c-0.9-2.3,0.2-4.9,2.5-5.8
				l45.6-18.2c1.1-0.4,2.3-0.4,3.3,0l45.6,18.2c2.3,0.9,3.4,3.5,2.5,5.8C149.1,138.3,147.4,139.3,145.6,139.3z"/>
			<path class="st1" d="M163,173.4c-8.2,0-16.1-2.7-22.6-7.6c-5.7,4.7-12.8,7.4-20.3,7.4c-7.4,0-14.5-2.6-20.1-7.2
				c-5.6,4.6-12.7,7.2-20.1,7.2c-7.5,0-14.6-2.6-20.3-7.4c-7.7,5.9-17.4,8.6-27.2,7.3c-2.5-0.3-4.2-2.5-3.9-5c0.3-2.5,2.5-4.2,5-3.9
				c8.5,1,17-1.8,23.2-7.7c0.9-0.8,2.1-1.3,3.3-1.2c1.2,0,2.3,0.6,3.2,1.5c4.3,4.7,10.4,7.5,16.8,7.5c6.4,0,12.5-2.7,16.8-7.5
				c1.7-1.9,4.9-1.9,6.6,0c4.3,4.7,10.4,7.5,16.8,7.5c6.4,0,12.5-2.7,16.8-7.5c0.8-0.9,2-1.4,3.2-1.5c1.2-0.1,2.4,0.4,3.3,1.2
				c6.2,6,14.6,8.8,23.2,7.7c2.4-0.3,4.7,1.4,5,3.9c0.3,2.5-1.4,4.7-3.9,5C166.1,173.3,164.5,173.4,163,173.4z"/>
			<path class="st1" d="M117.9,83.7H82.1c-2.5,0-4.5-2-4.5-4.5s2-4.5,4.5-4.5h35.8c2.5,0,4.5,2,4.5,4.5S120.4,83.7,117.9,83.7z"/>
			<path class="st1" d="M108.9,65.9H91.1c-2.5,0-4.5-2-4.5-4.5V39c0-4.9,4-8.9,8.9-8.9h8.9c4.9,0,8.9,4,8.9,8.9v22.4
				C113.4,63.9,111.4,65.9,108.9,65.9z M95.5,56.9h8.9V39l-8.9,0V56.9z M104.5,39h4.5H104.5C104.5,39,104.5,39,104.5,39z"/>
		</g>
	</g>
</g>
</svg>
